<?xml version="1.0" encoding="utf-8"?>
<!-- Generator: Adobe Illustrator 27.2.0, SVG Export Plug-In . SVG Version: 6.00 Build 0)  -->
<svg version="1.1" id="ThirteenPBS-BLK" xmlns="http://www.w3.org/2000/svg" xmlns:xlink="http://www.w3.org/1999/xlink" x="0px"
	 y="0px" viewBox="0 0 1920 309.1" style="enable-background:new 0 0 1920 309.1;" xml:space="preserve">
<style type="text/css">
	.st0{fill:#FFFFFF;}
	.st1{fill:#2638C4;}
</style>
<g>
	<g>
		<path class="st0" d="M44.2,102.4H0V61.9h131.2v40.5H89.4v144.9H44.2V102.4z"/>
		<path class="st0" d="M296.9,61.9v185.4h-45.2v-71.6h-62v71.6h-45.2V61.9h45.2v70.8h62V61.9H296.9z"/>
		<path class="st0" d="M324.6,61.9h45.2v185.4h-45.2V61.9z"/>
		<path class="st0" d="M496.7,248.2l-29.6-63.1h-24.7v62.2h-45.2V61.8h72.5c43.7,0,67.5,22.4,67.5,61.6c0,24.1-10.7,41.6-27.8,51.9
			l34.8,72.9H496.7z M442.4,147.5h27.3c14.4,0,21.8-8.6,21.8-23c0-14.1-7.4-23.2-21.8-23.2h-27.3V147.5z"/>
		<path class="st0" d="M580.6,102.4c0,0-4.2,0-31.3,0c-2.6-18.1-13.4-32.1-26.7-40.5c33.6,0,149.2,0,149.2,0v40.5h-41.8v144.9h-49.5
			V102.4z"/>
		<path class="st0" d="M799.6,207.3v40H685.1V61.9h113.3v40h-68.1v33h57.2v38.6h-57.2v33.8H799.6z"/>
		<path class="st0" d="M929.7,207.3v40H815.1V61.9h113.3v40h-68.1v33h57.2v38.6h-57.2v33.8H929.7z"/>
		<path class="st0" d="M1097.5,61.9v185.4h-40.9l-67.7-113v113h-43.7V61.9h40.9l67.7,113v-113H1097.5z"/>
	</g>
	<g>
		<g>
			<path class="st0" d="M1444.6,156.1l-17.2,3.5v31.7c0,10.6-8.8,19.1-20.1,19.1h-8.8v36.9h-28.2v-36.9h8.8
				c11.3,0,20.1-8.5,20.1-19.1v-31.7l17.2-3.5c3.7-0.8,5.7-4.9,3.9-8.2l-45-86h28.2l45,86C1450.3,151.2,1448.3,155.3,1444.6,156.1z"
				/>
		</g>
		<path class="st0" d="M1386.8,147.8l-45-86h-46.6c-42.3,0-78.3,34.7-77.3,77c0.8,31.6,21.1,55.3,49.5,64.2v44.3h69.4v-36.9h8.8
			c11.3,0,20.1-8.5,20.1-19.1v-31.7l17.2-3.5C1386.6,155.3,1388.5,151.2,1386.8,147.8z M1328.2,142.9c-9.8,0-17.7-7.9-17.7-17.7
			s7.9-17.7,17.7-17.7c9.8,0,17.7,7.9,17.7,17.7S1338,142.9,1328.2,142.9z"/>
	</g>
	<g>
		<path class="st0" d="M1486.6,154.6c0,85.4-69.2,154.6-154.6,154.6c-85.4,0-154.6-69.2-154.6-154.6C1177.5,69.2,1246.7,0,1332,0
			C1417.4,0,1486.6,69.2,1486.6,154.6"/>
		<g>
			<path class="st0" d="M1873.8,137.3c-16.9-8.8-30.6-15.9-30.6-29.5c0-9.6,8.2-15.5,22-15.5c16.4,0,31,5.3,42.1,11.9V69.4
				c-11.7-5-27.8-9.3-42.1-9.3c-40.8,0-59,24.3-59,50.6c0,30.8,20.8,45.6,43.7,57.8c22.6,11.9,31.1,17.1,31.1,30
				c0,10.9-9.5,17.2-25.3,17.2c-22,0-37.6-10.2-47.8-18.3l0,37.1c9.5,6.6,29.9,14.6,47.5,14.6c39.6,0,64.5-20.7,64.5-53.9
				C1920,160.8,1890.7,146.1,1873.8,137.3z"/>
			<path class="st0" d="M1572,61.8h-48.9v185.5h36.5v-59h7.4c45.7,0,74.1-24.3,74.1-63.4C1641,85.4,1615.2,61.8,1572,61.8z
				 M1559.6,92.7h10.7c21.4,0,35.3,12.4,35.3,31.6c0,20.8-12.8,32.7-35,32.7h-11V92.7z"/>
			<path class="st0" d="M1757.5,147.4c12.4-8.7,18.4-21.2,18.4-38.1c0-29.3-21.5-47.5-56.1-47.5h-56.6v185.5h59.1
				c45.3,0,66-29.1,66-56.1C1788.2,169.7,1776.5,153.2,1757.5,147.4z M1717.1,93.1c14.3,0,23.5,8.9,23.5,22.7
				c0,13.9-10,22.9-25.5,22.9h-15.5V93.1H1717.1z M1699.6,216.3v-48.4h23.1c18.4,0,29.4,9,29.4,24.1c0,16.2-11,24.3-32.8,24.3
				H1699.6z"/>
		</g>
		<g>
			<g>
				<path class="st1" d="M1444.6,156.1l-17.2,3.5v31.7c0,10.6-8.8,19.1-20.1,19.1h-8.8v36.9h-28.2v-36.9h8.8
					c11.3,0,20.1-8.5,20.1-19.1v-31.7l17.2-3.5c3.7-0.8,5.7-4.9,3.9-8.2l-45-86h28.2l45,86C1450.3,151.2,1448.3,155.3,1444.6,156.1z
					"/>
			</g>
			<path class="st1" d="M1386.8,147.8l-45-86h-46.6c-42.3,0-78.3,34.7-77.3,77c0.8,31.6,21.1,55.3,49.5,64.2v44.3h69.4v-36.9h8.8
				c11.3,0,20.1-8.5,20.1-19.1v-31.7l17.2-3.5C1386.6,155.3,1388.5,151.2,1386.8,147.8z M1328.2,142.9c-9.8,0-17.7-7.9-17.7-17.7
				s7.9-17.7,17.7-17.7c9.8,0,17.7,7.9,17.7,17.7S1338,142.9,1328.2,142.9z"/>
		</g>
	</g>
</g>
</svg>
