<?xml version="1.0" encoding="utf-8"?>
<!-- Generator: Adobe Illustrator 23.0.1, SVG Export Plug-In . SVG Version: 6.00 Build 0)  -->
<svg version="1.1" id="Layer_1" xmlns="http://www.w3.org/2000/svg" xmlns:xlink="http://www.w3.org/1999/xlink" x="0px" y="0px"
	 viewBox="0 0 158 60" style="enable-background:new 0 0 158 60;" xml:space="preserve">
<style type="text/css">
	.st0{fill:#FFFFFF;}
</style>
<path class="st0" d="M48.7,15c3.3,8.1,1.7,18.3-3.9,24.5c-5.7,6.9-16,9.9-25,7.1c-8-2.2-14.2-9-16.3-16.7C1.2,20,4.8,10.5,13,5
	c6-4.4,15.3-5.4,22.4-2.7C41.6,4.9,45.7,9.1,48.7,15z M27.4,3c-7.1,0.6-13.2,4.8-16.2,11.3c-2.8,7.2-1.7,16.8,3.9,22
	c2,1.7,3.8,3.6,6,4.2c-4.5-4.7-7.8-10.6-7.7-17.6c0.5-7.8,5.2-15.4,12.3-18.4c0.6-0.1,0.9,0.2,0.7,0.7c-5.1,3.6-8.3,9-9.5,15.3
	c-1.1,8.2,2.5,15.5,8.7,20.2c-4.1-5.6-5.9-15-1.8-21.4c2.6-4.7,7.3-8.6,12.4-9.2v0.8c-4.8,3-8.5,6.6-10.4,12
	c-2.2,6.1-0.7,13.9,3.7,18.6c-2-5.3-1.6-12.1,1.8-16.7c1.9-2.4,4.5-5.8,7.7-6v0.7c-2.2,1.7-4.1,4.4-5.6,6.8c-2.3,5-2.6,12.5,0.8,17
	c1.4,0.7,2.5-0.5,3.7-1.1c0.5-1.7-1-3.3-0.6-5.3c2-3.2,2.9-7.3,1.9-11.2l0.4-0.4c0.9,0.3,1.4,1.1,1.8,1.6c1.4,2,2,5.2,0.7,7.5
	c-0.7,1.8-3.2,3.8-1.7,5.8c3-1.9,5-5,6.4-8.2c2.7-6,1.7-14.4-1.8-19.5C40.6,6.8,34.7,3.1,27.4,3z"/>
<path class="st0" d="M78.8,43.6h-7.5V14c0-1.1-0.3-1.9-0.9-2.5c-0.6-0.6-1.5-0.8-2.8-0.8h-1.4v33h-7.5V6.2h6l0.8,1.7
	c0.7-0.6,1.5-1,2.5-1.3c1-0.3,2.1-0.4,3.2-0.4c2.4,0,4.2,0.7,5.6,2c1.3,1.3,2,3.2,2,5.5V43.6z"/>
<path class="st0" d="M91.5,18.5v-4.1c0-1.6,0.2-2.7,0.6-3.3c0.4-0.6,1.2-0.9,2.4-0.9c1.1,0,1.8,0.3,2.3,1c0.4,0.6,0.7,1.7,0.7,3.3
	v4.1H91.5z M105,16c0-3.5-0.8-6.1-2.5-7.8c-1.7-1.6-4.3-2.5-8-2.5c-3.4,0-6,0.9-7.8,2.6c-1.8,1.8-2.7,4.3-2.7,7.6v27.6h7.5V23.5h6
	v20.1h7.5V16z"/>
<path class="st0" d="M141.7,43.6h-7.5v-31c0-0.7-0.2-1.2-0.5-1.6c-0.4-0.4-0.9-0.6-1.5-0.6h-2.4v33.2h-7.4v-31
	c0-0.7-0.2-1.2-0.5-1.6c-0.4-0.4-0.9-0.6-1.5-0.6h-2.4v33.2h-7.5V6.2h6l0.8,1.7c0.5-0.5,1.3-0.9,2.5-1.2c1.2-0.3,2.3-0.5,3.5-0.5
	c1.3,0,2.4,0.2,3.4,0.5c0.9,0.3,1.6,0.8,2.1,1.4c0.7-0.6,1.6-1.1,2.6-1.4c1-0.3,2-0.5,3.1-0.5c2.3,0,4.2,0.6,5.5,1.9
	c1.4,1.3,2,3.1,2,5.4V43.6z"/>
<path class="st0" d="M155,43.6h-7.5V6.2h7.5V43.6z"/>
<path class="st0" d="M3.3,52.1h1.5l2.7,4.8v-4.8h1.3V59H7.4l-2.8-4.9V59H3.3V52.1z"/>
<path class="st0" d="M12,55.8c0.2,0,0.4-0.1,0.5-0.1c0.2-0.1,0.3-0.2,0.3-0.4c0-0.2-0.1-0.4-0.2-0.4c-0.1-0.1-0.4-0.1-0.6-0.1
	c-0.3,0-0.5,0.1-0.7,0.2c-0.1,0.1-0.2,0.3-0.2,0.5H9.8c0-0.4,0.2-0.8,0.4-1.1c0.4-0.4,1-0.7,1.8-0.7c0.6,0,1.1,0.1,1.5,0.3
	c0.4,0.2,0.7,0.6,0.7,1.3v2.4c0,0.2,0,0.4,0,0.6c0,0.2,0,0.3,0.1,0.4c0,0.1,0.1,0.1,0.2,0.2V59H13c0-0.1-0.1-0.2-0.1-0.3
	c0-0.1,0-0.2,0-0.3c-0.2,0.2-0.4,0.4-0.6,0.5c-0.3,0.2-0.6,0.2-1,0.2c-0.5,0-0.8-0.1-1.1-0.4c-0.3-0.3-0.5-0.6-0.5-1.1
	c0-0.6,0.2-1.1,0.7-1.4c0.3-0.2,0.7-0.3,1.2-0.3L12,55.8z M12.8,56.5c-0.1,0.1-0.2,0.1-0.3,0.1c-0.1,0-0.2,0.1-0.4,0.1l-0.3,0.1
	c-0.3,0.1-0.5,0.1-0.6,0.2c-0.2,0.1-0.3,0.3-0.3,0.6c0,0.2,0.1,0.4,0.2,0.5c0.1,0.1,0.3,0.2,0.5,0.2c0.3,0,0.6-0.1,0.8-0.3
	c0.2-0.2,0.4-0.5,0.4-0.9V56.5z"/>
<path class="st0" d="M14.7,54.9v-0.9h0.7v-1.4h1.3v1.4h0.8v0.9h-0.8v2.7c0,0.2,0,0.3,0.1,0.4C16.8,58,17,58,17.3,58c0,0,0.1,0,0.1,0
	c0,0,0.1,0,0.1,0v1l-0.6,0c-0.6,0-1.1-0.1-1.3-0.3c-0.2-0.2-0.2-0.4-0.2-0.7v-3.1H14.7z"/>
<path class="st0" d="M19.6,53.3h-1.3V52h1.3V53.3z M18.3,53.9h1.3V59h-1.3V53.9z"/>
<path class="st0" d="M25.1,58.3c-0.4,0.5-1.1,0.8-2,0.8c-0.9,0-1.5-0.3-2-0.8c-0.4-0.5-0.6-1.2-0.6-1.9c0-0.7,0.2-1.4,0.6-1.9
	c0.4-0.5,1.1-0.8,2-0.8c0.9,0,1.5,0.3,2,0.8c0.4,0.5,0.6,1.2,0.6,1.9C25.7,57.2,25.5,57.8,25.1,58.3z M24,57.6
	c0.2-0.3,0.3-0.7,0.3-1.2c0-0.5-0.1-0.9-0.3-1.2c-0.2-0.3-0.5-0.4-0.9-0.4s-0.7,0.1-0.9,0.4c-0.2,0.3-0.3,0.7-0.3,1.2
	c0,0.5,0.1,0.9,0.3,1.2c0.2,0.3,0.5,0.4,0.9,0.4S23.8,57.9,24,57.6z"/>
<path class="st0" d="M30.6,54.2c0.3,0.3,0.5,0.7,0.5,1.4V59h-1.4v-3.1c0-0.3,0-0.5-0.1-0.6c-0.1-0.3-0.4-0.4-0.7-0.4
	c-0.4,0-0.8,0.2-0.9,0.6c-0.1,0.2-0.1,0.5-0.1,0.8V59h-1.3v-5.1h1.3v0.8c0.2-0.3,0.3-0.5,0.5-0.6c0.3-0.2,0.6-0.3,1-0.3
	C29.9,53.7,30.3,53.9,30.6,54.2z"/>
<path class="st0" d="M34.3,55.8c0.2,0,0.4-0.1,0.5-0.1c0.2-0.1,0.3-0.2,0.3-0.4c0-0.2-0.1-0.4-0.2-0.4c-0.1-0.1-0.4-0.1-0.6-0.1
	c-0.3,0-0.5,0.1-0.7,0.2c-0.1,0.1-0.2,0.3-0.2,0.5h-1.3c0-0.4,0.2-0.8,0.4-1.1c0.4-0.4,1-0.7,1.8-0.7c0.6,0,1.1,0.1,1.5,0.3
	c0.4,0.2,0.7,0.6,0.7,1.3v2.4c0,0.2,0,0.4,0,0.6c0,0.2,0,0.3,0.1,0.4c0,0.1,0.1,0.1,0.2,0.2V59h-1.5c0-0.1-0.1-0.2-0.1-0.3
	c0-0.1,0-0.2,0-0.3c-0.2,0.2-0.4,0.4-0.6,0.5c-0.3,0.2-0.6,0.2-1,0.2c-0.5,0-0.8-0.1-1.1-0.4c-0.3-0.3-0.5-0.6-0.5-1.1
	c0-0.6,0.2-1.1,0.7-1.4c0.3-0.2,0.7-0.3,1.2-0.3L34.3,55.8z M35.1,56.5c-0.1,0.1-0.2,0.1-0.3,0.1c-0.1,0-0.2,0.1-0.4,0.1l-0.3,0.1
	c-0.3,0.1-0.5,0.1-0.6,0.2c-0.2,0.1-0.3,0.3-0.3,0.6c0,0.2,0.1,0.4,0.2,0.5c0.1,0.1,0.3,0.2,0.5,0.2c0.3,0,0.6-0.1,0.8-0.3
	c0.2-0.2,0.4-0.5,0.4-0.9V56.5z"/>
<path class="st0" d="M38.8,59h-1.3v-6.9h1.3V59z"/>
<path class="st0" d="M44.3,52.1h1.6l2.4,6.9h-1.6l-0.4-1.4h-2.5L43.3,59h-1.5L44.3,52.1z M44.2,56.4H46l-0.9-2.7L44.2,56.4z"/>
<path class="st0" d="M50.4,59H49v-6.9h1.3V59z"/>
<path class="st0" d="M52.9,59h-1.3v-6.9h1.3V59z"/>
<path class="st0" d="M55.4,53.3h-1.3V52h1.3V53.3z M54.1,53.9h1.3V59h-1.3V53.9z"/>
<path class="st0" d="M58.7,55.8c0.2,0,0.4-0.1,0.5-0.1c0.2-0.1,0.3-0.2,0.3-0.4c0-0.2-0.1-0.4-0.2-0.4c-0.1-0.1-0.4-0.1-0.6-0.1
	c-0.3,0-0.5,0.1-0.7,0.2c-0.1,0.1-0.2,0.3-0.2,0.5h-1.3c0-0.4,0.2-0.8,0.4-1.1c0.4-0.4,1-0.7,1.8-0.7c0.6,0,1.1,0.1,1.5,0.3
	c0.4,0.2,0.7,0.6,0.7,1.3v2.4c0,0.2,0,0.4,0,0.6c0,0.2,0,0.3,0.1,0.4c0,0.1,0.1,0.1,0.2,0.2V59h-1.5c0-0.1-0.1-0.2-0.1-0.3
	c0-0.1,0-0.2,0-0.3c-0.2,0.2-0.4,0.4-0.6,0.5c-0.3,0.2-0.6,0.2-1,0.2c-0.5,0-0.8-0.1-1.1-0.4c-0.3-0.3-0.5-0.6-0.5-1.1
	c0-0.6,0.2-1.1,0.7-1.4c0.3-0.2,0.7-0.3,1.2-0.3L58.7,55.8z M59.5,56.5c-0.1,0.1-0.2,0.1-0.3,0.1c-0.1,0-0.2,0.1-0.4,0.1l-0.3,0.1
	c-0.3,0.1-0.5,0.1-0.6,0.2c-0.2,0.1-0.3,0.3-0.3,0.6c0,0.2,0.1,0.4,0.2,0.5c0.1,0.1,0.3,0.2,0.5,0.2c0.3,0,0.6-0.1,0.8-0.3
	c0.2-0.2,0.4-0.5,0.4-0.9V56.5z"/>
<path class="st0" d="M66,54.2c0.3,0.3,0.5,0.7,0.5,1.4V59h-1.4v-3.1c0-0.3,0-0.5-0.1-0.6c-0.1-0.3-0.4-0.4-0.7-0.4
	c-0.4,0-0.8,0.2-0.9,0.6c-0.1,0.2-0.1,0.5-0.1,0.8V59h-1.3v-5.1h1.3v0.8c0.2-0.3,0.3-0.5,0.5-0.6c0.3-0.2,0.6-0.3,1-0.3
	C65.2,53.7,65.6,53.9,66,54.2z"/>
<path class="st0" d="M70.6,55.7c0-0.2-0.1-0.4-0.2-0.5c-0.1-0.2-0.4-0.3-0.7-0.3c-0.5,0-0.8,0.2-0.9,0.7c-0.1,0.2-0.1,0.6-0.1,1
	c0,0.4,0,0.7,0.1,0.9c0.2,0.4,0.5,0.6,0.9,0.6c0.3,0,0.5-0.1,0.7-0.2c0.1-0.2,0.2-0.4,0.2-0.6H72c0,0.4-0.2,0.8-0.4,1.1
	c-0.4,0.6-1,0.9-1.9,0.9c-0.8,0-1.4-0.2-1.8-0.7s-0.6-1.1-0.6-1.9c0-0.9,0.2-1.6,0.6-2c0.4-0.5,1-0.7,1.8-0.7c0.6,0,1.2,0.1,1.6,0.4
	c0.4,0.3,0.6,0.8,0.7,1.5H70.6z"/>
<path class="st0" d="M76.1,54c0.4,0.2,0.6,0.4,0.9,0.8c0.2,0.3,0.3,0.7,0.4,1.1c0,0.2,0.1,0.6,0,1h-3.7c0,0.5,0.2,0.9,0.5,1.1
	c0.2,0.1,0.5,0.2,0.7,0.2c0.3,0,0.6-0.1,0.7-0.2c0.1-0.1,0.2-0.2,0.3-0.4h1.3c0,0.3-0.2,0.6-0.5,0.9c-0.5,0.5-1.1,0.7-1.9,0.7
	c-0.7,0-1.3-0.2-1.8-0.6c-0.5-0.4-0.8-1.1-0.8-2c0-0.9,0.2-1.6,0.7-2c0.5-0.5,1.1-0.7,1.8-0.7C75.4,53.7,75.8,53.8,76.1,54z
	 M74.1,55.1c-0.2,0.2-0.3,0.4-0.4,0.8h2.3c0-0.3-0.1-0.6-0.4-0.8c-0.2-0.2-0.5-0.3-0.8-0.3C74.6,54.8,74.3,54.9,74.1,55.1z"/>
<path class="st0" d="M84.8,58.3c-0.4,0.5-1.1,0.8-2,0.8c-0.9,0-1.5-0.3-2-0.8c-0.4-0.5-0.6-1.2-0.6-1.9c0-0.7,0.2-1.4,0.6-1.9
	c0.4-0.5,1.1-0.8,2-0.8c0.9,0,1.5,0.3,2,0.8c0.4,0.5,0.6,1.2,0.6,1.9C85.5,57.2,85.3,57.8,84.8,58.3z M83.8,57.6
	c0.2-0.3,0.3-0.7,0.3-1.2c0-0.5-0.1-0.9-0.3-1.2c-0.2-0.3-0.5-0.4-0.9-0.4S82.2,55,82,55.3c-0.2,0.3-0.3,0.7-0.3,1.2
	c0,0.5,0.1,0.9,0.3,1.2c0.2,0.3,0.5,0.4,0.9,0.4S83.6,57.9,83.8,57.6z"/>
<path class="st0" d="M90.4,54.2c0.3,0.3,0.5,0.7,0.5,1.4V59h-1.4v-3.1c0-0.3,0-0.5-0.1-0.6c-0.1-0.3-0.4-0.4-0.7-0.4
	c-0.4,0-0.8,0.2-0.9,0.6c-0.1,0.2-0.1,0.5-0.1,0.8V59h-1.3v-5.1h1.3v0.8c0.2-0.3,0.3-0.5,0.5-0.6c0.3-0.2,0.6-0.3,1-0.3
	C89.7,53.7,90.1,53.9,90.4,54.2z"/>
<path class="st0" d="M99.3,52.1h2.1V59H100v-4.7c0-0.1,0-0.3,0-0.6c0-0.2,0-0.4,0-0.6L98.7,59h-1.4L96,53.2c0,0.1,0,0.3,0,0.6
	c0,0.2,0,0.4,0,0.6V59h-1.3v-6.9h2.1l1.3,5.4L99.3,52.1z"/>
<path class="st0" d="M105.8,54c0.4,0.2,0.6,0.4,0.9,0.8c0.2,0.3,0.3,0.7,0.4,1.1c0,0.2,0.1,0.6,0,1h-3.7c0,0.5,0.2,0.9,0.5,1.1
	c0.2,0.1,0.5,0.2,0.7,0.2c0.3,0,0.6-0.1,0.7-0.2c0.1-0.1,0.2-0.2,0.3-0.4h1.3c0,0.3-0.2,0.6-0.5,0.9c-0.5,0.5-1.1,0.7-1.9,0.7
	c-0.7,0-1.3-0.2-1.8-0.6c-0.5-0.4-0.8-1.1-0.8-2c0-0.9,0.2-1.6,0.7-2c0.5-0.5,1.1-0.7,1.8-0.7C105,53.7,105.4,53.8,105.8,54z
	 M103.8,55.1c-0.2,0.2-0.3,0.4-0.4,0.8h2.3c0-0.3-0.1-0.6-0.4-0.8c-0.2-0.2-0.5-0.3-0.8-0.3C104.2,54.8,104,54.9,103.8,55.1z"/>
<path class="st0" d="M111.8,54.2c0.3,0.3,0.5,0.7,0.5,1.4V59h-1.4v-3.1c0-0.3,0-0.5-0.1-0.6c-0.1-0.3-0.4-0.4-0.7-0.4
	c-0.4,0-0.8,0.2-0.9,0.6c-0.1,0.2-0.1,0.5-0.1,0.8V59h-1.3v-5.1h1.3v0.8c0.2-0.3,0.3-0.5,0.5-0.6c0.3-0.2,0.6-0.3,1-0.3
	C111,53.7,111.4,53.9,111.8,54.2z"/>
<path class="st0" d="M112.9,54.9v-0.9h0.7v-1.4h1.3v1.4h0.8v0.9h-0.8v2.7c0,0.2,0,0.3,0.1,0.4c0.1,0.1,0.2,0.1,0.5,0.1
	c0,0,0.1,0,0.1,0c0,0,0.1,0,0.1,0v1l-0.6,0c-0.6,0-1.1-0.1-1.3-0.3c-0.2-0.2-0.2-0.4-0.2-0.7v-3.1H112.9z"/>
<path class="st0" d="M118.5,55.8c0.2,0,0.4-0.1,0.5-0.1c0.2-0.1,0.3-0.2,0.3-0.4c0-0.2-0.1-0.4-0.2-0.4c-0.1-0.1-0.4-0.1-0.6-0.1
	c-0.3,0-0.5,0.1-0.7,0.2c-0.1,0.1-0.2,0.3-0.2,0.5h-1.3c0-0.4,0.2-0.8,0.4-1.1c0.4-0.4,1-0.7,1.8-0.7c0.6,0,1.1,0.1,1.5,0.3
	c0.4,0.2,0.7,0.6,0.7,1.3v2.4c0,0.2,0,0.4,0,0.6c0,0.2,0,0.3,0.1,0.4c0,0.1,0.1,0.1,0.2,0.2V59h-1.5c0-0.1-0.1-0.2-0.1-0.3
	c0-0.1,0-0.2,0-0.3c-0.2,0.2-0.4,0.4-0.6,0.5c-0.3,0.2-0.6,0.2-1,0.2c-0.5,0-0.8-0.1-1.1-0.4c-0.3-0.3-0.5-0.6-0.5-1.1
	c0-0.6,0.2-1.1,0.7-1.4c0.3-0.2,0.7-0.3,1.2-0.3L118.5,55.8z M119.3,56.5c-0.1,0.1-0.2,0.1-0.3,0.1c-0.1,0-0.2,0.1-0.4,0.1l-0.3,0.1
	c-0.3,0.1-0.5,0.1-0.6,0.2c-0.2,0.1-0.3,0.3-0.3,0.6c0,0.2,0.1,0.4,0.2,0.5c0.1,0.1,0.3,0.2,0.5,0.2c0.3,0,0.6-0.1,0.8-0.3
	c0.2-0.2,0.4-0.5,0.4-0.9V56.5z"/>
<path class="st0" d="M123,59h-1.3v-6.9h1.3V59z"/>
<path class="st0" d="M128.2,59h-1.4v-6.9h1.4V59z"/>
<path class="st0" d="M130.7,59h-1.3v-6.9h1.3V59z"/>
<path class="st0" d="M133.2,59h-1.3v-6.9h1.3V59z"/>
<path class="st0" d="M138.5,54.2c0.3,0.3,0.5,0.7,0.5,1.4V59h-1.4v-3.1c0-0.3,0-0.5-0.1-0.6c-0.1-0.3-0.4-0.4-0.7-0.4
	c-0.4,0-0.8,0.2-0.9,0.6c-0.1,0.2-0.1,0.5-0.1,0.8V59h-1.3v-5.1h1.3v0.8c0.2-0.3,0.3-0.5,0.5-0.6c0.3-0.2,0.6-0.3,1-0.3
	C137.7,53.7,138.2,53.9,138.5,54.2z"/>
<path class="st0" d="M143.5,54c0.4,0.2,0.6,0.4,0.9,0.8c0.2,0.3,0.3,0.7,0.4,1.1c0,0.2,0.1,0.6,0,1h-3.7c0,0.5,0.2,0.9,0.5,1.1
	c0.2,0.1,0.5,0.2,0.7,0.2c0.3,0,0.6-0.1,0.7-0.2c0.1-0.1,0.2-0.2,0.3-0.4h1.3c0,0.3-0.2,0.6-0.5,0.9c-0.5,0.5-1.1,0.7-1.9,0.7
	c-0.7,0-1.3-0.2-1.8-0.6c-0.5-0.4-0.8-1.1-0.8-2c0-0.9,0.2-1.6,0.7-2c0.5-0.5,1.1-0.7,1.8-0.7C142.7,53.7,143.1,53.8,143.5,54z
	 M141.5,55.1c-0.2,0.2-0.3,0.4-0.4,0.8h2.3c0-0.3-0.1-0.6-0.4-0.8c-0.2-0.2-0.5-0.3-0.8-0.3C141.9,54.8,141.6,54.9,141.5,55.1z"/>
<path class="st0" d="M146.4,57.3c0,0.2,0.1,0.4,0.2,0.5c0.2,0.2,0.5,0.3,0.9,0.3c0.3,0,0.5,0,0.6-0.1c0.2-0.1,0.2-0.2,0.2-0.4
	c0-0.2-0.1-0.3-0.2-0.3c-0.1-0.1-0.6-0.2-1.4-0.4c-0.6-0.1-1-0.3-1.2-0.5c-0.2-0.2-0.3-0.5-0.3-0.9c0-0.5,0.2-0.9,0.6-1.2
	c0.4-0.3,0.9-0.5,1.6-0.5c0.6,0,1.2,0.1,1.6,0.4c0.4,0.3,0.6,0.7,0.7,1.3h-1.3c0-0.2-0.1-0.3-0.1-0.4c-0.1-0.2-0.4-0.3-0.8-0.3
	c-0.3,0-0.5,0-0.6,0.1c-0.1,0.1-0.2,0.2-0.2,0.3c0,0.2,0.1,0.3,0.2,0.3c0.1,0.1,0.6,0.2,1.4,0.4c0.5,0.1,0.9,0.3,1.2,0.6
	c0.3,0.3,0.4,0.6,0.4,1c0,0.5-0.2,0.9-0.6,1.2c-0.4,0.3-1,0.5-1.7,0.5c-0.8,0-1.4-0.2-1.8-0.5c-0.4-0.3-0.6-0.8-0.6-1.3H146.4z"/>
<path class="st0" d="M151.6,57.3c0,0.2,0.1,0.4,0.2,0.5c0.2,0.2,0.5,0.3,0.9,0.3c0.3,0,0.5,0,0.6-0.1c0.2-0.1,0.2-0.2,0.2-0.4
	c0-0.2-0.1-0.3-0.2-0.3c-0.1-0.1-0.6-0.2-1.4-0.4c-0.6-0.1-1-0.3-1.2-0.5c-0.2-0.2-0.3-0.5-0.3-0.9c0-0.5,0.2-0.9,0.6-1.2
	c0.4-0.3,0.9-0.5,1.6-0.5c0.6,0,1.2,0.1,1.6,0.4c0.4,0.3,0.6,0.7,0.7,1.3h-1.3c0-0.2-0.1-0.3-0.1-0.4c-0.1-0.2-0.4-0.3-0.8-0.3
	c-0.3,0-0.5,0-0.6,0.1c-0.1,0.1-0.2,0.2-0.2,0.3c0,0.2,0.1,0.3,0.2,0.3c0.1,0.1,0.6,0.2,1.4,0.4c0.5,0.1,0.9,0.3,1.2,0.6
	c0.3,0.3,0.4,0.6,0.4,1c0,0.5-0.2,0.9-0.6,1.2c-0.4,0.3-1,0.5-1.7,0.5c-0.8,0-1.4-0.2-1.8-0.5c-0.4-0.3-0.6-0.8-0.6-1.3H151.6z"/>
</svg>
